# xmcd
#
# Track frame offsets:
# 150
# 15334
# 31015
# 48567
# 71580
# 92521
# 107620
# 120501
# 134937
# 146316
#
# Disc length: 2121 seconds
#
#
# Revision: 0
# Processed by: cddbd v1.5.1PL2 Copyright (c) Steve Scherf et al.
# Submitted via: FreeRIP 2.945 
#
DISCID=7e08470a
DTITLE=The Stylistics - The Stylistics [Most Famous Hits] [CD2]
DYEAR=1900
DGENRE=Jazz
TTITLE0=Reach out and touch
TTITLE1=Can't take my eyes off you
TTITLE2=How can you mend a broken heart
TTITLE3=I beleive I can fly
TTITLE4=I just called to say I love you
TTITLE5=Loving you
TTITLE6=I got it bad and that aint good
TTITLE7=Don't worry about me
TTITLE8=Satin Doll
TTITLE9=Send for me
EXTD=
EXTT0=
EXTT1=
EXTT2=
EXTT3=
EXTT4=
EXTT5=
EXTT6=
EXTT7=
EXTT8=
EXTT9=
PLAYORDER=
